<svg xmlns="http://www.w3.org/2000/svg" width="1440" height="900" viewBox="0 0 1440 900" fill="none">
  <rect width="1440" height="900" fill="#F5F6F8"/>
  <rect x="48" y="48" width="1344" height="804" rx="24" fill="white" stroke="#DADDE5"/>
  <rect x="84" y="92" width="1272" height="130" rx="18" fill="#1F6BFF" fill-opacity="0.08"/>
  <rect x="112" y="124" width="320" height="16" rx="8" fill="#DADDE5"/>
  <rect x="112" y="152" width="260" height="12" rx="6" fill="#DADDE5"/>
  <rect x="1068" y="118" width="256" height="78" rx="14" fill="white" stroke="#DADDE5"/>
  <rect x="84" y="250" width="404" height="264" rx="18" fill="#F5F6F8" stroke="#DADDE5"/>
  <rect x="518" y="250" width="404" height="264" rx="18" fill="#F5F6F8" stroke="#DADDE5"/>
  <rect x="952" y="250" width="404" height="264" rx="18" fill="#F5F6F8" stroke="#DADDE5"/>
  <rect x="108" y="548" width="1248" height="268" rx="18" fill="#111827" fill-opacity="0.04"/>
  <rect x="136" y="586" width="360" height="12" rx="6" fill="#DADDE5"/>
  <rect x="136" y="612" width="1160" height="10" rx="5" fill="#DADDE5"/>
  <rect x="136" y="634" width="1110" height="10" rx="5" fill="#DADDE5"/>
  <rect x="136" y="656" width="980" height="10" rx="5" fill="#DADDE5"/>
  <rect x="136" y="700" width="210" height="48" rx="12" fill="#1F6BFF"/>
</svg>
