<svg xmlns="http://www.w3.org/2000/svg" width="1440" height="900" viewBox="0 0 1440 900" fill="none">
  <rect width="1440" height="900" fill="#F5F6F8"/>
  <rect x="36" y="36" width="1368" height="828" rx="24" fill="white" stroke="#DADDE5"/>
  <rect x="72" y="80" width="300" height="20" rx="10" fill="#DADDE5"/>
  <rect x="72" y="116" width="210" height="14" rx="7" fill="#DADDE5"/>
  <rect x="72" y="164" width="420" height="320" rx="18" fill="#1F6BFF" fill-opacity="0.1"/>
  <rect x="516" y="164" width="380" height="150" rx="18" fill="#F5F6F8" stroke="#DADDE5"/>
  <rect x="516" y="334" width="380" height="150" rx="18" fill="#F5F6F8" stroke="#DADDE5"/>
  <rect x="920" y="164" width="448" height="320" rx="18" fill="#111827" fill-opacity="0.05"/>
  <rect x="72" y="512" width="1296" height="316" rx="20" fill="#F5F6F8" stroke="#DADDE5"/>
  <rect x="96" y="544" width="280" height="14" rx="7" fill="#DADDE5"/>
  <rect x="96" y="574" width="1180" height="10" rx="5" fill="#DADDE5"/>
  <rect x="96" y="596" width="1120" height="10" rx="5" fill="#DADDE5"/>
  <rect x="96" y="618" width="1060" height="10" rx="5" fill="#DADDE5"/>
  <rect x="96" y="654" width="180" height="46" rx="12" fill="#1F6BFF"/>
  <rect x="294" y="654" width="180" height="46" rx="12" fill="white" stroke="#DADDE5"/>
</svg>
