<svg xmlns="http://www.w3.org/2000/svg" width="1440" height="900" viewBox="0 0 1440 900" fill="none">
  <rect width="1440" height="900" fill="#F5F6F8"/>
  <rect x="40" y="40" width="1360" height="820" rx="24" fill="white" stroke="#DADDE5"/>
  <rect x="76" y="84" width="1288" height="72" rx="16" fill="#111827" fill-opacity="0.05"/>
  <rect x="96" y="110" width="240" height="20" rx="10" fill="#DADDE5"/>
  <rect x="1124" y="102" width="220" height="36" rx="12" fill="#1F6BFF"/>
  <rect x="76" y="184" width="390" height="640" rx="20" fill="#F5F6F8" stroke="#DADDE5"/>
  <rect x="492" y="184" width="872" height="640" rx="20" fill="#F5F6F8" stroke="#DADDE5"/>
  <rect x="104" y="222" width="210" height="14" rx="7" fill="#DADDE5"/>
  <rect x="104" y="256" width="334" height="56" rx="12" fill="white" stroke="#DADDE5"/>
  <rect x="104" y="326" width="334" height="56" rx="12" fill="#1F6BFF" fill-opacity="0.08" stroke="#1F6BFF" stroke-opacity="0.4"/>
  <rect x="104" y="396" width="334" height="56" rx="12" fill="white" stroke="#DADDE5"/>
  <circle cx="702" cy="330" r="40" fill="#1F6BFF" fill-opacity="0.15"/>
  <circle cx="912" cy="330" r="40" fill="#1F6BFF" fill-opacity="0.15"/>
  <circle cx="1122" cy="330" r="40" fill="#1F6BFF" fill-opacity="0.15"/>
  <path d="M742 330H872" stroke="#1F6BFF" stroke-width="4"/>
  <path d="M952 330H1082" stroke="#1F6BFF" stroke-width="4"/>
  <rect x="560" y="500" width="736" height="280" rx="16" fill="white" stroke="#DADDE5"/>
  <rect x="592" y="540" width="320" height="12" rx="6" fill="#DADDE5"/>
  <rect x="592" y="564" width="650" height="10" rx="5" fill="#DADDE5"/>
  <rect x="592" y="586" width="602" height="10" rx="5" fill="#DADDE5"/>
</svg>
